<?xml version="1.0" standalone="no"?>
<!DOCTYPE svg PUBLIC "-//W3C//DTD SVG 20010904//EN"
 "http://www.w3.org/TR/2001/REC-SVG-20010904/DTD/svg10.dtd">
<svg version="1.0" xmlns="http://www.w3.org/2000/svg"
 width="320.000000pt" height="320.000000pt" viewBox="0 0 320.000000 320.000000"
 preserveAspectRatio="xMidYMid meet">

<g transform="translate(0.000000,320.000000) scale(0.100000,-0.100000)"
fill="#000000" stroke="none">
<path d="M1305 3179 c-635 -114 -1146 -606 -1286 -1238 -28 -127 -27 -556 1
-684 138 -625 621 -1098 1260 -1234 123 -26 498 -26 620 1 342 73 616 227 853
476 208 218 343 478 408 778 27 127 36 383 19 518 -81 646 -552 1188 -1176
1353 -213 56 -485 68 -699 30z m235 -149 c0 -16 -7 -20 -35 -20 -31 0 -35 -3
-35 -26 0 -25 2 -26 35 -20 30 6 35 4 35 -12 0 -15 -9 -22 -36 -26 -29 -6 -35
-11 -32 -29 2 -18 9 -22 43 -22 29 0 41 -5 43 -16 3 -18 -34 -29 -94 -29 -31
0 -34 3 -34 28 0 16 -3 63 -6 105 -8 84 -9 82 79 86 31 1 37 -2 37 -19z m223
10 c30 0 37 -4 37 -20 0 -17 -7 -20 -40 -20 -33 0 -40 -3 -40 -20 0 -14 9 -21
36 -26 25 -5 34 -11 32 -23 -3 -12 -13 -15 -41 -14 -33 2 -37 0 -37 -22 0 -20
6 -25 35 -31 26 -5 35 -11 35 -26 0 -18 -4 -20 -37 -14 -21 3 -49 6 -62 6 -24
0 -24 1 -17 73 13 136 16 149 40 143 12 -3 38 -6 59 -6z m-444 -31 c37 -13 61
-53 61 -104 0 -51 -15 -74 -63 -96 -73 -32 -82 -28 -102 49 -36 139 -35 133
-18 139 13 5 66 19 84 22 3 1 20 -4 38 -10z m632 -9 c10 -6 19 -17 19 -25 0
-12 -9 -14 -40 -9 -33 6 -40 4 -40 -10 0 -10 14 -29 30 -43 52 -43 31 -113
-34 -113 -55 0 -77 11 -74 34 2 13 9 19 18 17 8 -2 27 -6 43 -9 37 -6 36 22
-3 55 -70 58 -1 146 81 103z m204 -72 c27 -12 29 -16 16 -37 -6 -10 -13 -11
-29 -2 -50 27 -96 3 -108 -56 -5 -25 -1 -34 21 -52 15 -11 34 -21 41 -21 16 0
17 -9 5 -29 -18 -29 -95 15 -111 64 -13 39 9 106 43 130 26 18 86 19 122 3z
m-1097 -24 c54 -38 68 -124 28 -171 -66 -77 -194 11 -171 117 13 60 92 90 143
54z m1234 -49 c20 -14 40 -34 43 -45 8 -25 -16 -66 -43 -75 -14 -4 -21 -19
-26 -55 -4 -28 -10 -50 -14 -50 -23 1 -32 20 -30 65 2 26 -1 49 -7 51 -5 2
-21 -13 -33 -32 -21 -33 -25 -35 -39 -21 -14 14 -10 24 36 101 29 47 58 86 64
86 7 0 29 -11 49 -25z m-1393 -114 c40 -64 49 -86 39 -92 -25 -16 -34 -8 -85
78 -47 79 -50 88 -35 99 20 15 15 20 81 -85z m1526 2 c-9 -26 -110 -152 -120
-153 -6 0 -16 5 -22 11 -8 8 6 34 54 95 54 70 68 83 79 73 8 -7 12 -19 9 -26z
m-1671 11 c4 -10 -5 -24 -24 -41 -45 -38 -40 -92 12 -119 27 -14 32 -14 54 1
13 8 24 20 24 25 0 12 -21 24 -44 25 -30 0 -29 19 2 42 l29 21 31 -41 c18 -22
32 -46 32 -53 0 -7 -17 -26 -37 -43 -48 -40 -98 -42 -137 -6 -58 53 -58 124 0
174 39 35 49 38 58 15z m1780 -84 c20 -22 36 -44 36 -48 0 -18 -33 -52 -51
-52 -14 0 -19 -7 -19 -28 0 -15 -5 -33 -12 -40 -25 -25 -92 -7 -132 37 -18 20
-17 21 50 96 37 41 73 75 80 75 6 0 28 -18 48 -40z m-881 23 c-35 -2 -91 -2
-125 0 -35 2 -7 3 62 3 69 0 97 -1 63 -3z m-205 -10 c-10 -2 -26 -2 -35 0 -10
3 -2 5 17 5 19 0 27 -2 18 -5z m406 -14 c23 -10 -14 -5 -94 11 -42 9 -41 9 14
4 33 -3 69 -10 80 -15z m-529 -9 c-77 -20 -185 -59 -234 -84 -17 -9 -31 -14
-31 -11 0 19 258 114 310 114 14 0 -6 -8 -45 -19z m626 -19 c55 -19 181 -80
166 -81 -4 0 -31 12 -60 26 -29 15 -81 37 -117 50 -36 12 -60 23 -54 23 6 1
35 -7 65 -18z m-1364 -37 c3 -8 -4 -25 -16 -38 -25 -27 -26 -32 -4 -40 10 -4
25 2 40 16 18 17 26 19 35 10 9 -9 7 -19 -10 -41 -20 -28 -20 -29 -3 -45 17
-16 20 -15 45 15 24 28 29 30 42 17 12 -12 10 -19 -22 -56 -19 -23 -41 -42
-47 -42 -7 0 -45 31 -86 68 l-74 68 37 42 c41 45 53 51 63 26z m1621 -34 c7
-43 -8 -91 -31 -100 -18 -7 -19 -9 -4 -9 40 -2 -9 -81 -50 -81 -12 0 -23 -4
-23 -10 0 -5 9 -10 21 -10 16 0 19 -4 14 -17 -4 -10 -8 -22 -9 -28 -12 -45
-27 -62 -68 -74 -49 -15 -118 -51 -118 -62 0 -5 21 1 48 12 96 42 93 42 86 11
-9 -37 -32 -82 -59 -114 -13 -15 -26 -45 -30 -68 -7 -43 -43 -80 -76 -80 -11
0 -19 -5 -19 -11 0 -6 9 -8 20 -4 11 3 20 4 20 1 0 -3 -9 -15 -20 -26 -32 -32
-23 -47 10 -15 16 16 31 27 32 24 2 -2 16 -29 32 -59 35 -67 198 -300 301
-430 42 -52 79 -101 82 -108 3 -7 -3 -20 -13 -28 -18 -14 -18 -14 4 -4 20 10
26 7 23 -13 -1 -4 5 -7 12 -5 16 4 67 -53 67 -75 0 -19 -516 -190 -538 -178
-18 10 19 25 198 80 75 22 174 55 220 71 47 17 91 33 99 36 11 3 11 8 3 16 -8
8 -15 8 -25 0 -39 -33 -425 -157 -460 -148 -9 2 -15 0 -11 -5 3 -5 3 -9 0 -9
-2 0 -13 -3 -23 -6 -15 -5 -15 -4 -3 5 10 7 11 11 3 11 -7 0 -17 -9 -23 -20
-6 -11 -17 -20 -25 -20 -18 0 -21 60 -4 93 9 20 8 20 -11 -2 -23 -27 -24 -26
-56 32 -8 15 -17 27 -20 27 -3 0 4 -16 16 -36 15 -26 18 -40 11 -47 -8 -8 -11
-8 -11 0 0 13 -69 1 -129 -23 -52 -21 -49 -28 4 -9 22 8 62 14 89 15 54 0 57
-9 5 -15 -18 -3 -37 -9 -43 -15 -7 -7 4 -8 36 -4 26 4 55 3 65 -1 15 -5 12
-10 -19 -26 -21 -11 -38 -25 -38 -33 0 -16 44 -40 62 -33 7 3 3 6 -10 6 -17 1
-22 6 -20 18 4 22 75 38 94 22 19 -15 18 -27 -3 -32 -10 -2 -5 -3 10 -2 56 4
8 -17 -52 -22 -45 -4 -61 -3 -61 7 0 18 -36 7 -143 -44 -123 -59 -355 -156
-372 -156 -7 0 -32 37 -54 83 -53 107 -125 250 -156 307 -97 183 -135 263
-135 282 0 17 3 19 9 9 7 -11 11 -9 21 10 7 12 16 34 20 48 6 25 7 25 32 -19
15 -25 83 -155 153 -290 115 -222 127 -250 126 -294 -1 -46 12 -59 15 -15 1
10 2 23 3 28 0 5 20 12 44 16 66 11 72 20 11 20 l-56 0 -52 100 c-28 55 -73
139 -99 188 -39 72 -157 321 -157 332 0 1 17 5 39 9 22 3 68 26 107 53 98 67
165 92 245 93 72 0 83 -7 128 -82 35 -59 36 -44 1 17 -23 41 -29 59 -21 72 18
35 56 62 101 72 85 20 83 25 34 -116 -25 -71 -50 -130 -55 -131 -5 -2 -7 -8
-4 -12 3 -5 -24 -110 -60 -234 -36 -123 -65 -228 -65 -232 0 -15 39 28 40 44
3 54 6 70 13 65 6 -4 11 15 10 44 -1 7 4 10 9 7 6 -4 8 -1 6 7 -3 8 3 36 14
63 10 27 17 51 14 53 -2 3 4 25 15 50 10 24 19 53 19 64 0 28 16 23 29 -8 6
-16 21 -39 32 -53 12 -14 6 3 -14 40 -32 61 -33 67 -21 97 11 26 26 36 93 62
44 17 84 31 89 31 5 0 15 7 22 15 10 12 9 16 -5 21 -14 6 -11 12 18 43 19 20
47 63 63 96 15 33 30 63 32 68 2 4 0 7 -5 7 -8 0 -12 -8 -51 -101 -11 -25 -37
-60 -57 -76 -34 -28 -35 -32 -19 -41 17 -10 17 -11 -6 -21 -80 -33 -154 -60
-157 -57 -6 6 128 340 181 451 46 98 165 300 256 435 93 138 130 167 138 110z
m-1158 -14 c0 -2 -17 -15 -37 -27 -152 -91 -306 -255 -387 -409 -47 -89 -74
-159 -102 -265 -12 -49 -23 -80 -24 -69 0 38 50 196 89 280 82 175 219 336
375 442 76 51 86 56 86 48z m1633 -41 c17 -24 17 -25 -47 -115 -54 -76 -65
-88 -76 -75 -10 12 -10 21 0 45 17 42 -1 64 -45 56 -22 -5 -36 -2 -45 9 -10
13 -2 19 56 45 38 17 83 37 99 44 39 19 37 19 58 -9z m-334 -120 c82 -77 172
-198 222 -297 39 -77 89 -215 88 -240 0 -7 -13 27 -30 76 -59 177 -181 367
-302 470 -29 24 -65 56 -82 71 l-30 27 35 -23 c19 -13 64 -50 99 -84z m-1870
-10 c34 -25 65 -45 70 -45 5 0 16 11 25 25 18 27 24 29 45 16 11 -7 6 -18 -22
-55 -20 -26 -38 -48 -40 -49 -5 -2 -167 113 -167 118 0 12 13 35 20 35 4 0 35
-20 69 -45z m2311 -14 c7 -15 1 -32 -30 -80 -22 -34 -40 -64 -40 -66 0 -3 25
11 56 31 45 29 58 33 65 23 5 -8 9 -17 9 -20 0 -4 -39 -30 -86 -58 -68 -41
-89 -50 -100 -40 -20 17 -18 23 25 92 22 34 38 63 36 65 -1 2 -26 -11 -54 -28
-49 -30 -87 -34 -79 -8 5 14 170 117 180 111 5 -2 12 -12 18 -22z m-2354 -70
c23 -10 49 -29 58 -42 47 -68 -20 -162 -103 -144 -38 8 -88 54 -97 89 -9 35
13 83 45 101 34 19 48 18 97 -4z m2455 -144 c23 -18 39 -52 39 -85 0 -63 -96
-118 -160 -92 -50 21 -74 85 -49 131 26 49 130 77 170 46z m-2623 -26 c10 -6
11 -13 1 -34 -17 -37 -4 -72 30 -87 46 -19 74 -10 94 32 13 26 23 35 34 31 42
-16 -29 -123 -82 -123 -38 0 -90 25 -109 51 -19 27 -21 77 -4 114 12 27 16 29
36 16z m2701 -188 c12 -10 24 -35 28 -55 5 -34 3 -38 -16 -38 -14 0 -21 6 -21
18 0 25 -23 53 -35 44 -6 -4 -15 -25 -20 -47 -13 -52 -51 -76 -89 -56 -45 24
-62 112 -23 119 13 3 17 -3 17 -25 0 -62 42 -71 54 -12 13 64 61 88 105 52z
m-291 -188 c0 -25 -2 -24 -9 10 -10 51 -10 92 1 50 4 -16 8 -43 8 -60z m-2181
-77 c-2 -18 -4 -6 -4 27 0 33 2 48 4 33 2 -15 2 -42 0 -60z m2183 -243 c-23
-162 -96 -341 -198 -484 -174 -244 -501 -434 -767 -446 l-80 -4 80 9 c156 17
351 90 486 181 142 95 285 259 363 416 81 162 114 306 118 503 l2 115 4 -105
c2 -58 -2 -141 -8 -185z m-2193 153 c-3 -7 -5 -2 -5 12 0 14 2 19 5 13 2 -7 2
-19 0 -25z m26 -208 c6 -38 5 -40 -3 -15 -6 17 -12 64 -15 105 -4 72 -4 73 4
15 4 -33 11 -80 14 -105z m14 -72 c-3 -8 -6 -5 -6 6 -1 11 2 17 5 13 3 -3 4
-12 1 -19z m59 -165 c-5 -5 -56 128 -55 142 0 6 13 -23 29 -64 16 -41 28 -76
26 -78z m-142 -43 c20 -52 20 -89 -1 -112 -32 -36 -86 -19 -119 37 -9 16 -14
17 -44 7 -37 -14 -35 -14 -43 13 -6 17 5 25 81 57 48 20 92 37 98 37 7 1 19
-17 28 -39z m252 -137 c117 -158 238 -259 409 -343 66 -33 152 -69 190 -80 42
-12 54 -18 30 -14 -72 10 -238 82 -335 145 -120 77 -265 223 -337 340 -29 46
-55 93 -59 104 -3 11 12 -10 34 -47 22 -36 53 -84 68 -105z m2167 156 c12 -6
32 -21 45 -32 49 -45 13 -157 -55 -170 -46 -9 -111 26 -129 68 -37 89 55 177
139 134z m-2332 -190 c10 -21 19 -47 19 -58 0 -30 -29 -53 -61 -49 -21 3 -30
0 -34 -12 -3 -9 -17 -28 -31 -41 -25 -24 -26 -24 -40 -5 -13 18 -11 23 11 46
46 48 29 81 -25 49 -26 -16 -35 -18 -41 -7 -16 24 -4 38 76 87 89 53 93 53
126 -10z m2174 32 c3 -5 -4 -25 -15 -45 -20 -32 -20 -37 -5 -65 27 -53 86 -55
120 -5 17 25 25 30 38 22 15 -8 16 -12 2 -38 -37 -71 -117 -92 -174 -44 -49
41 -53 103 -10 158 21 27 34 32 44 17z m-2069 -175 c26 -26 34 -42 34 -70 0
-44 -23 -82 -61 -102 -38 -19 -68 -18 -105 5 -67 41 -63 138 8 181 49 30 84
26 124 -14z m2020 -41 c94 -44 96 -46 80 -64 -15 -16 -22 -18 -42 -9 -21 10
-28 8 -46 -10 -19 -19 -20 -24 -9 -48 10 -23 9 -30 -3 -43 -9 -8 -17 -13 -20
-10 -2 2 -27 44 -55 92 -49 85 -50 89 -35 113 9 13 20 24 24 24 5 0 52 -20
106 -45z m-1922 -58 c16 -12 15 -17 -14 -81 -17 -38 -29 -71 -27 -73 2 -2 32
15 65 37 52 35 64 39 82 30 11 -6 18 -15 15 -20 -7 -12 -170 -110 -182 -110
-5 0 -18 6 -28 14 -18 13 -17 17 20 115 21 55 41 101 45 101 3 0 14 -6 24 -13z
m1790 -81 c59 -73 66 -90 39 -100 -11 -5 -25 4 -44 26 l-28 33 -27 -27 -28
-28 22 -29 c26 -35 27 -44 8 -60 -11 -10 -26 3 -77 65 -36 43 -65 71 -67 63
-2 -8 -18 -23 -35 -34 -37 -23 -47 -64 -23 -99 20 -32 49 -37 91 -16 27 14 37
15 45 5 18 -22 -47 -65 -100 -65 -49 0 -100 56 -100 108 0 49 35 95 85 114 19
6 35 15 35 19 0 4 7 10 17 13 10 4 27 -3 45 -21 l28 -27 27 26 26 26 -23 32
c-23 32 -23 33 -5 46 11 8 22 11 26 7 4 -5 32 -39 63 -77z m-1621 -48 c15 -12
11 -21 -39 -93 -30 -44 -59 -82 -65 -83 -5 -2 -16 1 -24 8 -11 10 -4 25 42 96
31 46 60 84 63 84 3 0 14 -6 23 -12z m77 -48 c16 -16 20 -34 21 -92 l0 -73 29
63 c30 63 35 68 58 53 20 -12 -63 -191 -88 -191 -30 0 -39 23 -42 105 l-3 80
-29 -62 c-20 -43 -35 -63 -47 -63 -10 0 -20 4 -24 10 -7 12 82 190 95 190 6 0
19 -9 30 -20z m539 -6 c8 -7 -94 -2 -124 6 -18 5 1 6 45 3 41 -3 77 -7 79 -9z
m99 -11 c-10 -2 -28 -2 -40 0 -13 2 -5 4 17 4 22 1 32 -1 23 -4z m438 -129
c15 -42 33 -78 40 -81 7 -2 26 2 42 11 31 16 42 13 42 -13 0 -16 -78 -51 -113
-51 -10 0 -26 29 -46 86 -17 47 -31 89 -31 94 0 7 25 27 36 30 1 0 14 -34 30
-76z m-791 35 c24 -24 4 -41 -31 -27 -57 21 -104 -12 -104 -72 0 -22 45 -60
71 -60 12 0 19 -7 19 -20 0 -24 -26 -26 -74 -6 -44 18 -66 52 -66 99 0 31 7
46 35 74 33 33 39 35 86 31 28 -3 57 -11 64 -19z m705 -8 c0 -14 -10 -20 -40
-25 -40 -6 -45 -12 -34 -39 4 -12 12 -13 37 -6 44 12 47 12 47 -11 0 -14 -9
-21 -35 -26 -29 -5 -35 -11 -35 -31 0 -24 2 -25 50 -18 45 6 50 5 50 -12 0
-15 -12 -22 -61 -32 -34 -7 -65 -9 -69 -4 -7 7 -38 139 -43 182 -1 9 14 19 43
27 68 18 90 17 90 -5z m-625 -38 c-23 -131 -37 -173 -55 -173 -10 0 -21 4 -24
8 -2 4 5 51 17 105 20 89 24 97 45 97 22 0 24 -3 17 -37z m171 -78 c29 -115
29 -125 3 -125 -13 0 -23 10 -30 30 -9 25 -16 30 -44 30 -27 0 -34 -5 -39 -25
-5 -18 -13 -25 -31 -25 -31 0 -31 2 1 81 57 140 50 131 86 127 31 -3 32 -5 54
-93z m272 70 c38 -32 49 -83 27 -125 -22 -42 -54 -60 -118 -67 l-54 -5 -6 53
c-4 30 -7 77 -7 106 0 58 3 60 82 62 36 1 53 -5 76 -24z"/>
<path d="M1243 2965 c-3 -9 0 -37 7 -63 19 -71 21 -73 50 -59 34 17 41 86 11
116 -25 25 -59 27 -68 6z"/>
<path d="M972 2868 c-20 -20 -14 -65 14 -97 29 -35 45 -38 69 -14 21 21 13 68
-17 100 -24 25 -48 29 -66 11z"/>
<path d="M2242 2810 c-15 -25 -8 -40 19 -40 25 0 35 25 19 45 -16 20 -23 19
-38 -5z"/>
<path d="M2476 2641 c-17 -19 -17 -20 3 -31 35 -18 58 13 28 39 -11 8 -18 6
-31 -8z"/>
<path d="M2417 2582 c-22 -25 -21 -39 3 -47 25 -8 40 1 40 24 0 31 -24 44 -43
23z"/>
<path d="M1556 1557 c3 -10 9 -15 12 -12 3 3 0 11 -7 18 -10 9 -11 8 -5 -6z"/>
<path d="M1680 1340 c6 -11 13 -20 16 -20 2 0 0 9 -6 20 -6 11 -13 20 -16 20
-2 0 0 -9 6 -20z"/>
<path d="M2195 1220 c-13 -6 -15 -9 -5 -9 8 0 22 4 30 9 18 12 2 12 -25 0z"/>
<path d="M2015 1199 c-22 -5 -44 -15 -50 -21 -7 -8 -6 -9 3 -3 8 4 46 13 85
20 43 8 58 13 37 13 -19 0 -53 -4 -75 -9z"/>
<path d="M1924 1141 c-18 -11 -35 -25 -40 -33 -4 -7 5 -3 20 10 16 12 35 22
42 22 7 0 16 5 19 10 10 15 -7 12 -41 -9z"/>
<path d="M1140 1021 c0 -6 4 -13 10 -16 6 -3 7 1 4 9 -7 18 -14 21 -14 7z"/>
<path d="M1478 964 c-38 -20 -36 -28 2 -9 17 9 30 18 30 20 0 7 -1 6 -32 -11z"/>
<path d="M1257 801 c3 -12 9 -21 13 -21 10 0 22 31 15 38 -3 3 -5 0 -5 -8 0
-10 -3 -10 -14 -1 -12 10 -13 8 -9 -8z"/>
<path d="M2607 2474 c-16 -8 -27 -20 -24 -27 7 -21 23 -17 45 13 25 33 20 36
-21 14z"/>
<path d="M342 2258 c-20 -20 -14 -45 19 -72 47 -40 109 -31 109 15 0 44 -98
87 -128 57z"/>
<path d="M2789 2107 c-82 -55 -17 -119 69 -67 37 23 44 63 13 80 -29 15 -44
13 -82 -13z"/>
<path d="M372 1070 c-19 -8 -21 -13 -12 -30 17 -31 54 -23 58 13 4 29 -6 33
-46 17z"/>
<path d="M2766 1059 c-13 -19 -13 -26 -1 -49 16 -31 33 -40 74 -40 55 0 70 54
25 89 -35 28 -79 27 -98 0z"/>
<path d="M460 912 c-21 -17 -21 -19 -5 -35 20 -21 29 -21 44 -3 9 11 10 20 1
35 -13 25 -12 25 -40 3z"/>
<path d="M526 745 c-44 -41 -30 -95 25 -95 26 0 79 48 79 71 0 51 -60 65 -104
24z"/>
<path d="M2566 728 c31 -53 37 -58 50 -47 21 17 17 24 -22 42 -23 12 -33 13
-28 5z"/>
<path d="M1442 290 c-15 -42 -16 -40 8 -40 21 0 25 19 11 54 -7 18 -9 16 -19
-14z"/>
<path d="M1680 283 c0 -91 18 -112 68 -77 16 11 22 25 22 54 0 46 -21 70 -61
70 -28 0 -29 -2 -29 -47z"/>
</g>
</svg>
